<svg xmlns="http://www.w3.org/2000/svg" xmlns:xlink="http://www.w3.org/1999/xlink" width="20" height="20" viewBox="0 0 20 20">
  <defs>
    <clipPath id="clip-path">
      <path id="Path_54" data-name="Path 54" d="M337-91a10,10,0,0,0-10,10,10,10,0,0,0,10,10,10,10,0,0,0,10-10A10,10,0,0,0,337-91Zm0,18a8.011,8.011,0,0,1-8-8,8.011,8.011,0,0,1,8-8,8.011,8.011,0,0,1,8,8A8.011,8.011,0,0,1,337-73Zm-1-4h2v2h-2Zm1.61-9.96a4,4,0,0,0-4.43,2.79.907.907,0,0,0,.87,1.17h.2a.963.963,0,0,0,.88-.67,2,2,0,0,1,2.3-1.28,2.023,2.023,0,0,1,1.57,2.1c-.1,1.34-1.62,1.63-2.45,2.88,0,.01-.01.01-.01.02s-.02.03-.03.05a3.33,3.33,0,0,0-.25.5c-.01.03-.03.05-.04.08a.631.631,0,0,0-.02.07A3.717,3.717,0,0,0,336-78h2a2.124,2.124,0,0,1,.28-1.07c.02-.03.03-.06.05-.09a2.761,2.761,0,0,1,.28-.39c.01-.01.02-.03.03-.04a3.512,3.512,0,0,1,.33-.34c.96-.91,2.26-1.65,1.99-3.56a4.075,4.075,0,0,0-3.35-3.47Z" fill="none"/>
    </clipPath>
    <clipPath id="clip-path-2">
      <path id="Path_53" data-name="Path 53" d="M0,0H414V-896H0Z" fill="none"/>
    </clipPath>
  </defs>
  <g id="Group_42" data-name="Group 42" transform="translate(-327 91)" clip-path="url(#clip-path)">
    <g id="Group_41" data-name="Group 41" clip-path="url(#clip-path-2)">
      <path id="Path_52" data-name="Path 52" d="M322-96h30v30H322Z" fill="#a0a9b7"/>
    </g>
  </g>
</svg>
