<svg xmlns="http://www.w3.org/2000/svg" xmlns:xlink="http://www.w3.org/1999/xlink" width="24" height="24" viewBox="0 0 24 24">
  <defs>
    <clipPath id="clip-path">
      <path id="Path_219" data-name="Path 219" d="M218.286-489.286h-8.571v8.571A1.719,1.719,0,0,1,208-479a1.719,1.719,0,0,1-1.714-1.714v-8.571h-8.571A1.719,1.719,0,0,1,196-491a1.719,1.719,0,0,1,1.714-1.714h8.571v-8.571A1.719,1.719,0,0,1,208-503a1.719,1.719,0,0,1,1.714,1.714v8.571h8.571A1.719,1.719,0,0,1,220-491,1.719,1.719,0,0,1,218.286-489.286Z" fill="none"/>
    </clipPath>
    <clipPath id="clip-path-2">
      <path id="Path_218" data-name="Path 218" d="M0,0H414V-896H0Z" fill="none"/>
    </clipPath>
  </defs>
  <g id="Group_231" data-name="Group 231" transform="translate(-196 503)" clip-path="url(#clip-path)">
    <g id="Group_230" data-name="Group 230" clip-path="url(#clip-path-2)">
      <path id="Path_217" data-name="Path 217" d="M191-508h34v34H191Z" fill="#fff"/>
    </g>
  </g>
</svg>
